<?xml version="1.0" encoding="utf-8"?>
<!-- Designed by Vexels.com - 2020 All Rights Reserved - https://vexels.com/terms-and-conditions/  -->
<svg version="1.1" id="Layer_1" xmlns="http://www.w3.org/2000/svg" xmlns:xlink="http://www.w3.org/1999/xlink" x="0px" y="0px"
	 viewBox="0 0 1200 1200" enable-background="new 0 0 1200 1200" xml:space="preserve">
<path fill="#202020" stroke="#202020" stroke-width="3.172" stroke-miterlimit="10" d="M185.569,808.292
	c3.132-64.458,6.762-144.442,10.967-224.379c5.191-98.68,10.885-197.32,16.252-295.986c0.262-4.809,0.195-9.993-0.952-14.52
	c-12.442-49.13,6.934-82.475,36.61-108.752c37.263-32.994,81.181-46.373,124.929-58.431C427.83,91.216,482.221,73.687,537.432,65.54
	c107.592-15.877,215.89-25.641,322.157,13.078c47.077,17.153,90.952,43.407,127.716,85.302
	c17.034,19.412,25.63,43.925,26.058,71.993c1.773,116.332,3.569,232.674,4.109,349.021c0.52,112.138,0.181,224.325-13.573,335.633
	c-0.928,7.514-0.844,15.346-0.447,22.967c2.875,55.144-17.981,93.37-55.108,120.056c-45.448,32.668-95.958,45.823-146.677,57.418
	c-113.525,25.954-228.146,34.187-343.367,29.193c-71.65-3.105-141.611-16.326-206.716-57.365
	c-39.535-24.92-61.273-61.14-60.634-118.546C191.507,924.198,187.892,874.034,185.569,808.292z M998.124,294.469
	c-21.9,16.212-40.148,32.471-60.16,44.005c-54.29,31.292-112.238,48.009-171.137,58.524
	c-104.332,18.627-209.257,18.009-314.018,7.754c-78.609-7.695-154.064-29.758-217.572-93.326c-0.472-0.473-1.937,0.585-3.845,1.239
	c-3.654,222.162-35.658,443.578-16.782,671.417c38.62-57.463,87.368-85.466,139.755-106.707
	c109.092-44.232,221.44-54.931,335.157-51.861c63.575,1.716,126.234,10.997,186.148,39.761
	c38.049,18.267,74.522,39.856,105.049,78.875C1006.038,726.335,994.022,510.934,998.124,294.469z M556.949,379.888
	c130.988-0.133,236.247-7.973,336.692-53.875c28.41-12.983,55.405-32.892,80.487-54.267c18.457-15.73,20.412-37.069,8.561-61.15
	c-8.235-16.732-19.615-32.691-32.426-44.059C880.9,104.988,801.289,83.619,717.925,83.94c-49.123,0.19-98.256,7.181-147.333,11.934
	c-72.077,6.98-144.037,16.664-213.417,42.855c-32.382,12.224-65.114,27.404-93.858,49.082
	c-42.512,32.061-41.702,72.457-1.888,109.202c30.541,28.186,64.97,46.501,101.704,57.945
	C435.041,377.362,508.573,378.742,556.949,379.888z M518.064,1122.222c93.242-0.384,185.895-9.867,277.661-30.424
	c48.483-10.861,97.034-22.88,140.483-54.06c43.19-30.995,45.055-61.179,4.91-97.553c-57.189-51.817-123.631-76.922-192.41-85.695
	c-71.173-9.079-142.935-5.703-214.766,1.491c-78.194,7.831-152.057,32.642-223.086,70.677
	c-25.513,13.662-48.655,37.136-69.395,60.839c-26.442,30.22-24.018,50.303,7.612,70.682c26.15,16.847,53.886,31.287,82.175,41.33
	C392.158,1121.134,455.193,1121.874,518.064,1122.222z"/>
</svg>
